<mxfile host="Electron" agent="Mozilla/5.0 (Windows NT 10.0; Win64; x64) AppleWebKit/537.36 (KHTML, like Gecko) draw.io/26.2.2 Chrome/134.0.6998.178 Electron/35.1.2 Safari/537.36" version="26.2.2">
  <diagram name="Pagina-1" id="NelhvKRag_xOS2y_cszG">
    <mxGraphModel dx="816" dy="481" grid="1" gridSize="10" guides="1" tooltips="1" connect="1" arrows="1" fold="1" page="1" pageScale="1" pageWidth="827" pageHeight="1169" math="1" shadow="0">
      <root>
        <mxCell id="0" />
        <mxCell id="1" parent="0" />
        <mxCell id="HwhUJfYTe5DR0lXagpHi-4" value="" style="endArrow=none;html=1;rounded=0;" edge="1" parent="1">
          <mxGeometry width="50" height="50" relative="1" as="geometry">
            <mxPoint x="424" y="243" as="sourcePoint" />
            <mxPoint x="491" y="201" as="targetPoint" />
          </mxGeometry>
        </mxCell>
        <mxCell id="HwhUJfYTe5DR0lXagpHi-1" value="" style="ellipse;whiteSpace=wrap;html=1;aspect=fixed;fillColor=none;" vertex="1" parent="1">
          <mxGeometry x="320" y="200" width="160" height="160" as="geometry" />
        </mxCell>
        <mxCell id="HwhUJfYTe5DR0lXagpHi-2" value="" style="ellipse;whiteSpace=wrap;html=1;strokeColor=none;fillColor=#3399FF;" vertex="1" parent="1">
          <mxGeometry x="488" y="199" width="5" height="5" as="geometry" />
        </mxCell>
        <mxCell id="HwhUJfYTe5DR0lXagpHi-3" value="" style="ellipse;whiteSpace=wrap;html=1;strokeColor=none;fillColor=#3399FF;" vertex="1" parent="1">
          <mxGeometry x="422" y="240" width="5" height="5" as="geometry" />
        </mxCell>
        <mxCell id="HwhUJfYTe5DR0lXagpHi-5" value="$$m_1$$" style="text;html=1;align=center;verticalAlign=middle;resizable=0;points=[];autosize=1;strokeColor=none;fillColor=none;" vertex="1" parent="1">
          <mxGeometry x="389.5" y="215" width="70" height="30" as="geometry" />
        </mxCell>
        <mxCell id="HwhUJfYTe5DR0lXagpHi-6" value="$$m_2$$" style="text;html=1;align=center;verticalAlign=middle;resizable=0;points=[];autosize=1;strokeColor=none;fillColor=none;" vertex="1" parent="1">
          <mxGeometry x="457" y="174" width="70" height="30" as="geometry" />
        </mxCell>
        <mxCell id="HwhUJfYTe5DR0lXagpHi-7" value="" style="endArrow=none;html=1;rounded=0;dashed=1;" edge="1" parent="1">
          <mxGeometry width="50" height="50" relative="1" as="geometry">
            <mxPoint x="457" y="222" as="sourcePoint" />
            <mxPoint x="472" y="222" as="targetPoint" />
          </mxGeometry>
        </mxCell>
        <mxCell id="HwhUJfYTe5DR0lXagpHi-9" value="" style="endArrow=none;html=1;rounded=0;curved=1;" edge="1" parent="1">
          <mxGeometry width="50" height="50" relative="1" as="geometry">
            <mxPoint x="471" y="221.5" as="sourcePoint" />
            <mxPoint x="467" y="216.5" as="targetPoint" />
            <Array as="points">
              <mxPoint x="471" y="216.5" />
            </Array>
          </mxGeometry>
        </mxCell>
        <mxCell id="HwhUJfYTe5DR0lXagpHi-10" value="$$\varphi$$" style="text;html=1;align=center;verticalAlign=middle;resizable=0;points=[];autosize=1;strokeColor=none;fillColor=none;" vertex="1" parent="1">
          <mxGeometry x="437" y="204" width="90" height="30" as="geometry" />
        </mxCell>
        <mxCell id="HwhUJfYTe5DR0lXagpHi-11" value="" style="endArrow=none;html=1;rounded=0;entryX=1;entryY=0;entryDx=0;entryDy=0;" edge="1" parent="1" target="HwhUJfYTe5DR0lXagpHi-1">
          <mxGeometry width="50" height="50" relative="1" as="geometry">
            <mxPoint x="400" y="280" as="sourcePoint" />
            <mxPoint x="450" y="230" as="targetPoint" />
          </mxGeometry>
        </mxCell>
        <mxCell id="HwhUJfYTe5DR0lXagpHi-13" value="" style="endArrow=classic;html=1;rounded=0;" edge="1" parent="1">
          <mxGeometry width="50" height="50" relative="1" as="geometry">
            <mxPoint x="280" y="280" as="sourcePoint" />
            <mxPoint x="560" y="280" as="targetPoint" />
          </mxGeometry>
        </mxCell>
        <mxCell id="HwhUJfYTe5DR0lXagpHi-14" value="" style="endArrow=none;html=1;rounded=0;curved=1;" edge="1" parent="1">
          <mxGeometry width="50" height="50" relative="1" as="geometry">
            <mxPoint x="420" y="280" as="sourcePoint" />
            <mxPoint x="410" y="270" as="targetPoint" />
            <Array as="points">
              <mxPoint x="420" y="270" />
            </Array>
          </mxGeometry>
        </mxCell>
        <mxCell id="HwhUJfYTe5DR0lXagpHi-15" value="$$\theta$$" style="text;html=1;align=center;verticalAlign=middle;resizable=0;points=[];autosize=1;strokeColor=none;fillColor=none;" vertex="1" parent="1">
          <mxGeometry x="369" y="276" width="80" height="30" as="geometry" />
        </mxCell>
        <mxCell id="HwhUJfYTe5DR0lXagpHi-16" value="$$a$$" style="text;html=1;align=center;verticalAlign=middle;resizable=0;points=[];autosize=1;strokeColor=none;fillColor=none;rotation=-45;" vertex="1" parent="1">
          <mxGeometry x="401.5" y="243" width="60" height="30" as="geometry" />
        </mxCell>
        <mxCell id="HwhUJfYTe5DR0lXagpHi-17" value="$$\ell$$" style="text;html=1;align=center;verticalAlign=middle;resizable=0;points=[];autosize=1;strokeColor=none;fillColor=none;rotation=-30;" vertex="1" parent="1">
          <mxGeometry x="422" y="197" width="70" height="30" as="geometry" />
        </mxCell>
        <mxCell id="HwhUJfYTe5DR0lXagpHi-18" value="" style="endArrow=classic;html=1;rounded=0;" edge="1" parent="1">
          <mxGeometry width="50" height="50" relative="1" as="geometry">
            <mxPoint x="399.8" y="373.5" as="sourcePoint" />
            <mxPoint x="399.8" y="173.5" as="targetPoint" />
          </mxGeometry>
        </mxCell>
      </root>
    </mxGraphModel>
  </diagram>
</mxfile>
